<?xml version="1.0" encoding="utf-8"?>
<!-- Generator: Adobe Illustrator 16.2.1, SVG Export Plug-In . SVG Version: 6.00 Build 0)  -->
<!DOCTYPE svg PUBLIC "-//W3C//DTD SVG 1.1//EN" "http://www.w3.org/Graphics/SVG/1.1/DTD/svg11.dtd">
<svg version="1.1" id="Layer_1" xmlns="http://www.w3.org/2000/svg" xmlns:xlink="http://www.w3.org/1999/xlink" x="0px" y="0px"
	 width="519.138px" height="52.268px" viewBox="155.28 21.824 519.138 52.268"
	 enable-background="new 155.28 21.824 519.138 52.268" xml:space="preserve">
<g>
	<g>
		<g>
			<path fill="#231F20" d="M155.28,21.96h14.317c4.846,0,7.225,2.119,7.225,6.042c0,1.94-0.763,3.519-2.199,4.466
				c2.604,1.486,3.905,3.697,3.905,6.494c0,4.418-3.051,7.305-8.167,7.305H155.28V21.96z M169.865,31.566
				c2.559,0,3.907-1.218,3.907-3.382c0-2.301-1.302-3.427-3.907-3.427h-11.577v6.809H169.865z M170.943,43.471
				c2.829,0,4.444-1.802,4.444-4.555c0-2.705-1.615-4.555-4.444-4.555h-12.655v9.11L170.943,43.471L170.943,43.471z"/>
			<path fill="#231F20" d="M207.04,21.96h19.03v2.796h-16.022v7.125h9.695v2.795h-9.695v8.793h17.011v2.797H207.04V21.96z"/>
			<path fill="#231F20" d="M253.999,21.96h3.008v21.511h15.796v2.797h-18.804L253.999,21.96L253.999,21.96z"/>
			<path fill="#231F20" d="M298.89,21.96h3.007v21.511h15.8v2.797h-18.806V21.96H298.89z"/>
			<path fill="#231F20" d="M519.321,21.96h14.316c4.847,0,7.227,2.119,7.227,6.042c0,1.94-0.762,3.519-2.201,4.466
				c2.605,1.486,3.904,3.697,3.904,6.494c0,4.418-3.051,7.305-8.169,7.305H519.32L519.321,21.96L519.321,21.96z M533.905,31.566
				c2.562,0,3.904-1.218,3.904-3.382c0-2.301-1.302-3.427-3.904-3.427h-11.576v6.809H533.905z M534.985,43.471
				c2.824,0,4.445-1.802,4.445-4.555c0-2.705-1.621-4.555-4.445-4.555h-12.656v9.11L534.985,43.471L534.985,43.471z"/>
			<path fill="#231F20" d="M571.122,21.824h3.056v24.535h-3.056V21.824z"/>
			<path fill="#231F20" d="M603.763,21.96h13.866c4.756,0,7.585,2.524,7.585,6.763c0,3.427-2.198,6.226-5.743,6.857l6.058,10.688
				h-3.319l-6.062-10.644h-9.374v10.644h-3.011L603.763,21.96L603.763,21.96z M617.451,32.783c3.05,0,4.621-1.397,4.621-3.968
				c0-2.526-1.571-4.059-4.488-4.059h-10.812v8.027H617.451z"/>
			<path fill="#231F20" d="M674.418,34.182c0,6.991-4.625,12.086-12.702,12.086H651.35V21.96h10.366
				C669.571,21.96,674.418,27.145,674.418,34.182z M654.354,24.756V43.47h7.361c6.237,0,9.604-3.878,9.604-9.335
				c0-5.456-3.591-9.379-9.604-9.379H654.354z"/>
		</g>
		<g>
			<path fill="#231F20" d="M443.697,34.069c2.423-0.809,4.569-0.945,6.721-1.08c0.271-0.946,0.539-2.028,0.539-3.377
				c0-3.92-3.225-5.943-7.796-5.943c-7.933,0-14.518,2.702-24.471,18.238l-1.611-0.137c-0.536-3.376-1.476-7.7-3.762-10.537
				c-6.051,7.836-11.965,19.858-27.022,19.858c-5.377,0-9.678-3.917-9.678-8.779c0-2.434,0.94-4.73,2.821-6.757
				c-3.495-0.809-6.453-1.35-9.007-1.35c-2.151,0-3.763,1.216-3.763,2.566c0,0.676,0.402,0.946,0.402,1.756
				c0,0.541-0.538,1.081-1.477,1.081c-0.943-0.134-1.614-1.081-1.614-2.026c0-2.567,2.956-4.593,6.452-4.593
				c2.822,0,6.32,0.541,10.082,1.485c3.901-3.646,11.025-6.213,18.956-6.213h2.555c0.27,0,0.404-0.136,0.538-0.271l0.806,1.216
				c-5.78,2.972-10.888,8.376-11.83,12.563h2.016l-0.404,1.216h-5.511l0.27-1.216h2.018c0.403-1.217,0.94-2.565,1.882-3.918
				c-3.228-0.134-6.589-0.811-10.085-1.619c-1.747,1.755-2.688,4.052-2.688,6.619c0,3.782,3.226,7.025,7.259,7.025
				c13.848,0,20.031-12.024,26.08-19.724c-1.343-1.083-2.957-1.891-4.972-1.891l0.671-1.217c6.317,0,9.279,4.864,10.752,11.482
				c9.678-13.103,15.594-16.076,24.334-16.076c5.242,0,10.216,2.973,10.216,7.835c0,0.946-0.135,1.891-0.403,2.702
				c4.303,0.135,9.411,2.16,13.312,2.16c3.764,0,4.974-1.214,4.974-3.782c0-0.946,0.672-1.486,1.208-1.486
				c0.807,0,1.477,0.541,1.477,1.352c0,2.836-2.685,5.133-7.659,5.133c-3.9,0-9.411-2.026-13.579-2.161
				c-2.823,8.106-15.995,5.403-22.179,7.701v-1.217c1.073-0.541,2.281-0.675,3.627-0.946c2.958-2.431,6.051-8.377,6.051-11.619
				h1.477c0,3.378-2.957,8.241-4.971,11.349c5.24-0.541,11.157-0.541,13.307-5.134c-1.883,0-3.896,0.272-6.05,0.809L443.697,34.069z
				 M382.799,35.15c3.495,0.678,6.991,1.488,9.949,1.488c2.017-2.432,4.705-5.134,7.527-7.025h-1.612
				C391.941,29.748,386.294,31.909,382.799,35.15z"/>
		</g>
	</g>
	<path d="M256.475,64.336h1.248v9.553h-1.248V64.336z"/>
	<path d="M272.574,70.883c0,1.881-1.707,3.208-4.699,3.208c-2.991,0-4.717-1.309-4.717-3.189c0-1.106,0.569-1.938,1.708-2.454
		c-0.68-0.442-1.046-1.033-1.046-1.732c0-1.495,1.468-2.546,4.056-2.546s4.057,1.051,4.057,2.546c0,0.699-0.368,1.29-1.046,1.732
		C272.022,68.984,272.574,69.776,272.574,70.883z M267.875,72.929c2.202,0,3.413-0.867,3.413-2.027c0-1.365-1.173-1.788-3.413-1.788
		c-2.239,0-3.431,0.423-3.431,1.788C264.443,72.062,265.672,72.929,267.875,72.929z M267.875,65.314
		c-1.781,0-2.754,0.589-2.754,1.383c0,0.755,0.938,1.254,2.754,1.254c1.817,0,2.772-0.481,2.772-1.291
		C270.646,65.922,269.673,65.314,267.875,65.314z"/>
	<g>
		<polygon points="277.051,64.7 279.35,64.7 279.35,69.553 280.27,69.553 280.27,64.7 282.567,64.7 282.567,63.825 277.051,63.825 
					"/>
		<polygon points="289.149,63.825 289.149,65.992 285.457,65.992 285.457,63.825 284.526,63.825 284.526,69.553 285.457,69.553 
			285.457,66.866 289.149,66.866 289.149,69.553 290.07,69.553 290.07,63.825 		"/>
	</g>
	<path d="M311.333,71.713l1.763,2.047h-1.579l-1.101-1.255c-1.266,1.07-2.423,1.605-3.836,1.605c-2.24,0-3.688-1.272-3.688-3.228
		c0-1.586,0.973-2.766,2.973-3.762l-2.716-3.228h6.497l0.68,1.087h-4.644l4.844,5.736c0.293-0.295,0.642-0.645,0.991-1.107
		l0.79,1.017C312.031,71.011,311.719,71.362,311.333,71.713z M306.634,68.005c-1.633,0.701-2.441,1.642-2.441,2.822
		c0,1.255,0.955,2.121,2.369,2.121c1.082,0,2.128-0.46,3.119-1.345L306.634,68.005z"/>
	<path d="M327.417,64.336h1.247v9.553h-1.247V64.336z"/>
	<path d="M340.23,72.929c2.257,0,3.798-1.143,4.093-2.969c-1.432,0.757-2.736,1.107-4.24,1.107c-2.773,0-4.699-1.476-4.699-3.449
		s1.725-3.468,4.534-3.468c3.505,0,5.8,2.288,5.8,5.036c0,2.857-2.184,4.904-5.434,4.904c-1.651,0-3.009-0.516-4.312-1.622
		l0.734-0.849C337.807,72.505,339.036,72.929,340.23,72.929z M339.899,65.314c-1.926,0-3.229,1.125-3.229,2.305
		c0,1.291,1.468,2.305,3.378,2.305c1.467,0,2.807-0.46,4.276-1.346C344.103,66.807,342.23,65.314,339.899,65.314z"/>
	<path d="M387.475,71.399c-0.918,1.734-2.551,2.692-4.552,2.692c-2.954,0-5.12-2.177-5.12-5.201s2.166-5.219,5.12-5.219
		c1.834,0,3.395,0.849,4.333,2.323l-1.029,0.738c-0.624-1.199-1.872-1.9-3.304-1.9c-2.203,0-3.855,1.697-3.855,4.058
		c0,2.361,1.653,4.039,3.855,4.039c1.542,0,2.771-0.772,3.561-2.267L387.475,71.399z"/>
	<path d="M393.4,63.893h7.781v1.144h-6.55v2.914h3.963v1.144h-3.963v3.597h6.953v1.143H393.4V63.893z"/>
	<path d="M407.145,63.893h0.642l6.425,7.434v-7.434h1.229v9.94h-0.624l-6.443-7.432v7.432h-1.229V63.893z"/>
	<path d="M423.845,65.037h-4.166v-1.144h9.563v1.144h-4.167v8.797h-1.23V65.037z"/>
	<path d="M434.469,70.33c0,2.065,0.586,2.6,2.844,2.6c2.259,0,2.845-0.534,2.845-2.6v-6.437h1.23v6.77
		c0,2.435-1.157,3.429-4.075,3.429c-2.917,0-4.073-0.994-4.073-3.429v-6.77h1.229V70.33z"/>
	<path d="M447.792,63.893h5.67c1.945,0,3.101,1.032,3.101,2.767c0,1.402-0.898,2.545-2.348,2.805l2.476,4.369h-1.355l-2.479-4.352
		h-3.835v4.352h-1.229V63.893L447.792,63.893z M453.389,68.32c1.248,0,1.891-0.572,1.891-1.623c0-1.034-0.643-1.66-1.837-1.66
		h-4.422v3.283H453.389L453.389,68.32z"/>
	<path d="M464.581,68.857l-4.46-4.964h1.543l3.542,3.928l3.525-3.928h1.558l-4.477,4.979v4.961h-1.23L464.581,68.857L464.581,68.857
		z"/>
	<path d="M482.938,69.554v1.55c0,1.328,0.956,1.825,2.992,1.825c2.147,0,2.697-0.626,2.697-2.6v-6.437h1.23v6.77
		c0,2.453-1.175,3.429-4.15,3.429c-2.695,0-4-0.939-4-2.95v-1.587H482.938z"/>
	<path d="M496.426,63.893h7.782v1.144h-6.552v2.914h3.967v1.144h-3.967v3.597h6.957v1.143h-8.188V63.893z"/>
	<path d="M508.574,63.893h1.211l2.459,7.672l2.514-7.672h1.102l2.514,7.654l2.46-7.654h1.175l-3.212,9.94h-0.898l-2.608-8.004
		l-2.586,8.004h-0.9L508.574,63.893z"/>
	<path d="M527.108,63.893h7.78v1.144h-6.55v2.914h3.965v1.144h-3.965v3.597h6.955v1.143h-8.186V63.893z"/>
	<path d="M540.853,63.893h1.229v8.798h6.462v1.143h-7.69V63.893L540.853,63.893z"/>
	<path d="M553.696,63.893h5.67c1.947,0,3.104,1.032,3.104,2.767c0,1.402-0.899,2.545-2.35,2.805l2.477,4.369h-1.357l-2.477-4.352
		h-3.835v4.352h-1.232V63.893L553.696,63.893z M559.295,68.32c1.247,0,1.891-0.572,1.891-1.623c0-1.034-0.644-1.66-1.837-1.66h-4.42
		v3.283H559.295L559.295,68.32z"/>
	<path d="M570.489,68.857l-4.46-4.964h1.541l3.541,3.928l3.525-3.928h1.56l-4.479,4.979v4.961h-1.229V68.857L570.489,68.857z"/>
	<path d="M290.101,71.965h-12.228v0.692h5.44c0.049,0.451,0.415,0.806,0.875,0.806c0.461,0,0.827-0.354,0.876-0.806h5.036V71.965
		L290.101,71.965z"/>
	<g>
		<polygon points="349.464,64.7 351.762,64.7 351.762,69.553 352.684,69.553 352.684,64.7 354.981,64.7 354.981,63.825 
			349.464,63.825 		"/>
		<polygon points="361.562,63.825 361.562,65.992 357.869,65.992 357.869,63.825 356.938,63.825 356.938,69.553 357.869,69.553 
			357.869,66.866 361.562,66.866 361.562,69.553 362.483,69.553 362.483,63.825 		"/>
	</g>
	<path d="M362.487,71.965h-12.228v0.692h5.44c0.049,0.451,0.416,0.806,0.876,0.806c0.461,0,0.827-0.354,0.876-0.806h5.036
		L362.487,71.965L362.487,71.965z"/>
</g>
</svg>
